<svg width="45" height="46" viewBox="0 0 45 46" fill="none" xmlns="http://www.w3.org/2000/svg">
<g filter="url(#filter0_d_22_159)">
<circle cx="22.5" cy="21" r="17.5" fill="#4FB783"/>
</g>
<g filter="url(#filter1_d_22_159)">
<path d="M30.5902 16.2311H31.8715C31.9422 16.2311 31.9997 16.1741 31.9997 16.1036V14.7255C31.9997 13.6283 31.106 12.7389 30.0032 12.7389H29.5302L29.5301 11.984C29.5301 11.4428 29.0852 11.0001 28.5415 11.0001H28.4416C27.8977 11.0001 27.4528 11.4428 27.4528 11.984V12.7389L25.2023 12.7387V11.9839C25.2023 11.4428 24.7574 11.0001 24.2136 11.0001H24.1137C23.5699 11.0001 23.1249 11.4428 23.1249 11.9839V12.7388L20.8746 12.7387V11.9839C20.8746 11.4427 20.4297 11 19.8858 11H19.786C19.2421 11 18.7972 11.4427 18.7972 11.9839V12.7388L16.5467 12.7386V11.9839C16.5467 11.4427 16.1018 11 15.5581 11H15.4582C14.9144 11 14.4695 11.4427 14.4695 11.9839V12.7388H13.9965C12.8937 12.7388 12 13.6284 12 14.7254V16.1035C12 16.1738 12.0573 16.231 12.1282 16.231L30.5902 16.2311Z" fill="white"/>
<path d="M13.4095 17.1673H12.1282C12.0575 17.1673 12 17.2244 12 17.2949V28.9439C12 30.0792 12.925 30.9997 14.066 30.9997H27.5969C27.8983 30.9997 28.187 30.8772 28.3958 30.6605L31.6922 27.2389C31.8895 27.034 32 26.7608 32 26.4768V17.2946C32 17.2242 31.9427 17.167 31.8718 17.167H30.5905L13.4097 17.1671L13.4095 17.1673ZM15.402 18.7959H18.6594C18.6979 18.7959 18.7289 18.8267 18.7289 18.865V20.8312C18.7289 20.8695 18.6979 20.9003 18.6594 20.9003H15.402C15.3636 20.9003 15.3326 20.8695 15.3326 20.8312V18.865C15.3326 18.8267 15.3637 18.7959 15.402 18.7959ZM20.4626 18.7959H23.7199C23.7584 18.7959 23.7894 18.8267 23.7894 18.865V20.8312C23.7894 20.8695 23.7584 20.9003 23.7199 20.9003H20.4626C20.4241 20.9003 20.3931 20.8695 20.3931 20.8312V18.865C20.3931 18.8267 20.4244 18.7959 20.4626 18.7959ZM25.5231 18.7959H28.7804C28.8189 18.7959 28.8499 18.8267 28.8499 18.865V20.8312C28.8499 20.8695 28.8189 20.9003 28.7804 20.9003H25.5231C25.4846 20.9003 25.4536 20.8695 25.4536 20.8312V18.865C25.4536 18.8267 25.4846 18.7959 25.5231 18.7959ZM28.8499 22.6954V24.6615C28.8499 24.6998 28.8189 24.7307 28.7804 24.7307L25.5231 24.7308C25.4846 24.7308 25.4536 24.7 25.4536 24.6617V22.6954C25.4536 22.6571 25.4846 22.6262 25.5231 22.6262H28.7804C28.8187 22.6264 28.8499 22.6572 28.8499 22.6954ZM20.3931 24.6617V22.6954C20.3931 22.6571 20.4241 22.6262 20.4626 22.6262H23.7199C23.7584 22.6262 23.7894 22.6571 23.7894 22.6954V24.6615C23.7894 24.6998 23.7584 24.7307 23.7199 24.7307L20.4626 24.7308C20.4244 24.7308 20.3931 24.6998 20.3931 24.6617ZM23.7895 26.5259V28.4921C23.7895 28.5304 23.7585 28.5612 23.72 28.5612L20.4626 28.5614C20.4241 28.5614 20.3931 28.5305 20.3931 28.4922V26.5261C20.3931 26.4878 20.4241 26.4569 20.4626 26.4569H23.7199C23.7582 26.4568 23.7895 26.4878 23.7895 26.5259ZM15.4021 22.6264H18.6595C18.6979 22.6264 18.7289 22.6572 18.7289 22.6955V24.6617C18.7289 24.7 18.6979 24.7308 18.6595 24.7308H15.4021C15.3636 24.7308 15.3326 24.7 15.3326 24.6617V22.6954C15.3326 22.6572 15.3638 22.6264 15.4021 22.6264ZM15.4021 26.4567H18.6595C18.6979 26.4567 18.7289 26.4876 18.7289 26.5259V28.492C18.7289 28.5303 18.6979 28.5612 18.6595 28.5612L15.4021 28.5613C15.3636 28.5613 15.3326 28.5305 15.3326 28.4922V26.526C15.3326 26.4877 15.3638 26.4567 15.4021 26.4567ZM31.0993 26.0839L30.984 26.2053C30.8755 26.2402 27.0989 30.2986 27.0989 30.2986V29.5975L27.0991 27.3694C27.0991 26.6622 27.6805 26.0838 28.391 26.0838L31.0993 26.0839Z" fill="white"/>
</g>
<defs>
<filter id="filter0_d_22_159" x="0" y="0.5" width="45" height="45" filterUnits="userSpaceOnUse" color-interpolation-filters="sRGB">
<feFlood flood-opacity="0" result="BackgroundImageFix"/>
<feColorMatrix in="SourceAlpha" type="matrix" values="0 0 0 0 0 0 0 0 0 0 0 0 0 0 0 0 0 0 127 0" result="hardAlpha"/>
<feOffset dy="2"/>
<feGaussianBlur stdDeviation="2.5"/>
<feComposite in2="hardAlpha" operator="out"/>
<feColorMatrix type="matrix" values="0 0 0 0 0.309804 0 0 0 0 0.717647 0 0 0 0 0.513726 0 0 0 0.25 0"/>
<feBlend mode="normal" in2="BackgroundImageFix" result="effect1_dropShadow_22_159"/>
<feBlend mode="normal" in="SourceGraphic" in2="effect1_dropShadow_22_159" result="shape"/>
</filter>
<filter id="filter1_d_22_159" x="8" y="11" width="28" height="28" filterUnits="userSpaceOnUse" color-interpolation-filters="sRGB">
<feFlood flood-opacity="0" result="BackgroundImageFix"/>
<feColorMatrix in="SourceAlpha" type="matrix" values="0 0 0 0 0 0 0 0 0 0 0 0 0 0 0 0 0 0 127 0" result="hardAlpha"/>
<feOffset dy="4"/>
<feGaussianBlur stdDeviation="2"/>
<feComposite in2="hardAlpha" operator="out"/>
<feColorMatrix type="matrix" values="0 0 0 0 0 0 0 0 0 0 0 0 0 0 0 0 0 0 0.25 0"/>
<feBlend mode="normal" in2="BackgroundImageFix" result="effect1_dropShadow_22_159"/>
<feBlend mode="normal" in="SourceGraphic" in2="effect1_dropShadow_22_159" result="shape"/>
</filter>
</defs>
</svg>
