<svg width="none" height="none" viewBox="0 0 45 46" fill="none" xmlns="http://www.w3.org/2000/svg">
<g filter="url(#filter0_d_22_155)">
<circle cx="22.5" cy="21" r="17.5" fill="#4FB783"/>
</g>
<g filter="url(#filter1_d_22_155)">
<path fill-rule="evenodd" clip-rule="evenodd" d="M22.4999 10.5C18.3583 10.5 15 13.8215 15 17.8883C15 18.7274 15.3708 19.7787 15.9191 21.0356C16.4674 22.2928 17.2099 23.7226 17.9934 25.1516C19.5603 28.0096 21.3129 30.8824 22.0363 32.2275C22.1252 32.3947 22.3044 32.5 22.5 32.5C22.6956 32.5 22.8748 32.3947 22.9637 32.2275C23.6871 30.8824 25.4395 28.0096 27.0066 25.1516C27.7901 23.7226 28.5244 22.2928 29.0727 21.0356C29.6211 19.7785 30 18.7273 30 17.8883C30 13.8219 26.644 10.5 22.5001 10.5H22.4999ZM22.4999 14.5612C23.9788 14.5612 25.1843 15.7245 25.1843 17.1464C25.1843 18.5663 23.9786 19.7316 22.4999 19.7316C21.0212 19.7316 19.8074 18.5663 19.8074 17.1464C19.8074 15.7247 21.021 14.5612 22.4999 14.5612Z" fill="white"/>
</g>
<defs>
<filter id="filter0_d_22_155" x="0" y="0.5" width="45" height="45" filterUnits="userSpaceOnUse" color-interpolation-filters="sRGB">
<feFlood flood-opacity="0" result="BackgroundImageFix"/>
<feColorMatrix in="SourceAlpha" type="matrix" values="0 0 0 0 0 0 0 0 0 0 0 0 0 0 0 0 0 0 127 0" result="hardAlpha"/>
<feOffset dy="2"/>
<feGaussianBlur stdDeviation="2.5"/>
<feComposite in2="hardAlpha" operator="out"/>
<feColorMatrix type="matrix" values="0 0 0 0 0.309804 0 0 0 0 0.717647 0 0 0 0 0.513726 0 0 0 0.25 0"/>
<feBlend mode="normal" in2="BackgroundImageFix" result="effect1_dropShadow_22_155"/>
<feBlend mode="normal" in="SourceGraphic" in2="effect1_dropShadow_22_155" result="shape"/>
</filter>
<filter id="filter1_d_22_155" x="11" y="10.5" width="23" height="30" filterUnits="userSpaceOnUse" color-interpolation-filters="sRGB">
<feFlood flood-opacity="0" result="BackgroundImageFix"/>
<feColorMatrix in="SourceAlpha" type="matrix" values="0 0 0 0 0 0 0 0 0 0 0 0 0 0 0 0 0 0 127 0" result="hardAlpha"/>
<feOffset dy="4"/>
<feGaussianBlur stdDeviation="2"/>
<feComposite in2="hardAlpha" operator="out"/>
<feColorMatrix type="matrix" values="0 0 0 0 0 0 0 0 0 0 0 0 0 0 0 0 0 0 0.25 0"/>
<feBlend mode="normal" in2="BackgroundImageFix" result="effect1_dropShadow_22_155"/>
<feBlend mode="normal" in="SourceGraphic" in2="effect1_dropShadow_22_155" result="shape"/>
</filter>
</defs>
</svg>
