<svg width="none" height="none" viewBox="0 0 130 26" fill="none" xmlns="http://www.w3.org/2000/svg">
<path d="M13.0606 3L15.8604 10.7001L24.1201 10.9804L17.6797 16.1601L19.7803 24L13.0606 19.3799L6.20014 24L8.44042 16.1601L2 10.9804L10.1201 10.7001L13.0606 3Z" fill="#FEEB97" stroke="#FEEB97" stroke-width="1.4" stroke-miterlimit="10"/>
<path d="M38.8203 3L41.6202 10.7001L49.8799 10.9804L43.4405 16.1601L45.6798 24L38.8203 19.3799L31.9599 24L34.2002 16.1601L27.7598 10.9804L36.0205 10.7001L38.8203 3Z" fill="#FEEB97" stroke="#FEEB97" stroke-width="1.4" stroke-miterlimit="10"/>
<path d="M64.5801 3L67.3799 10.7001L75.6397 10.9804L69.2002 16.1601L71.4405 24L64.5801 19.3799L57.7197 24L59.9599 16.1601L53.5205 10.9804L61.7802 10.7001L64.5801 3Z" fill="#FEEB97" stroke="#FEEB97" stroke-width="1.4" stroke-miterlimit="10"/>
<path d="M90.3408 3L93.1407 10.7001L101.401 10.9804L94.961 16.1601L97.2013 24L90.3408 19.3799L83.4814 24L85.7207 16.1601L79.2812 10.9804L87.541 10.7001L90.3408 3Z" fill="#FEEB97" stroke="#FEEB97" stroke-width="1.4" stroke-miterlimit="10"/>
<path d="M116.101 3L119.041 10.7001L127.161 10.9804L120.721 16.1601L122.961 24L116.101 19.3799L109.381 24L111.481 16.1601L105.041 10.9804L113.301 10.7001L116.101 3Z" stroke="#FEEB97" stroke-width="1.4" stroke-miterlimit="10"/>
</svg>
