<svg width="28" height="28" viewBox="0 0 28 28" fill="none" xmlns="http://www.w3.org/2000/svg">
<g filter="url(#filter0_d_62_524)">
<path fill-rule="evenodd" clip-rule="evenodd" d="M14.0157 2C19.5243 2 24 6.47571 24 12.0157C24 17.5243 19.5243 22 14.0157 22C8.47571 22 4 17.5243 4 12.0157C4 6.47571 8.47571 2 14.0157 2ZM13.734 6.22536H14.2035V12.1096L18.7732 14.7701L18.5541 15.1144L14.2034 12.6105V14.2067H13.7339V12.3288L12.2316 11.4838L12.4506 11.1082L13.7338 11.8593V6.22541L13.734 6.22536ZM7.28655 11.8279V12.2973H6.22237C6.28501 13.5805 6.62933 14.77 7.2239 15.8341L7.88112 15.4586L7.97501 15.6151L7.31779 15.9907C7.97501 17.1175 8.91404 18.0564 10.0407 18.7136L10.4163 18.0564L10.5728 18.1503L10.1972 18.8075C11.2614 19.4022 12.4821 19.7465 13.7653 19.7778V18.7762H14.2348V19.7778C15.6745 19.7465 17.0204 19.3083 18.1473 18.5885L17.7403 17.9625L17.8969 17.8686L18.3038 18.4946C19.2741 17.8374 20.0879 16.9922 20.6826 15.9907L20.0566 15.6151L20.1192 15.4586L20.7765 15.8341C21.3712 14.77 21.7467 13.5806 21.778 12.2973H20.7138V11.8279H21.778C21.7467 10.5133 21.4024 9.29271 20.8077 8.19714L20.1191 8.60411L20.0565 8.44758L20.7137 8.04061C20.0565 6.91379 19.1174 5.9749 17.9907 5.31769L17.5838 5.9749L17.4273 5.91226L17.8342 5.22365C16.77 4.62894 15.5493 4.25337 14.2349 4.22212V5.34894H13.7655V4.22212C12.3258 4.28476 10.9799 4.69158 9.85296 5.44283L10.2599 6.10005L10.1034 6.19394L9.69644 5.53672C8.72615 6.19394 7.9124 7.03908 7.28644 8.04061L7.97504 8.44758L7.88115 8.60411L7.22394 8.19714C6.59797 9.29257 6.25365 10.5133 6.2224 11.8279H7.28655ZM14.0158 3.37714C18.7733 3.37714 22.6544 7.22679 22.6544 12.0157C22.6544 16.7732 18.7733 20.6543 14.0158 20.6543C9.2269 20.6543 5.37726 16.7732 5.37726 12.0157C5.37726 7.22679 9.2269 3.37714 14.0158 3.37714Z" fill="white"/>
</g>
<defs>
<filter id="filter0_d_62_524" x="0" y="0" width="28" height="28" filterUnits="userSpaceOnUse" color-interpolation-filters="sRGB">
<feFlood flood-opacity="0" result="BackgroundImageFix"/>
<feColorMatrix in="SourceAlpha" type="matrix" values="0 0 0 0 0 0 0 0 0 0 0 0 0 0 0 0 0 0 127 0" result="hardAlpha"/>
<feOffset dy="2"/>
<feGaussianBlur stdDeviation="2"/>
<feComposite in2="hardAlpha" operator="out"/>
<feColorMatrix type="matrix" values="0 0 0 0 0 0 0 0 0 0 0 0 0 0 0 0 0 0 0.25 0"/>
<feBlend mode="normal" in2="BackgroundImageFix" result="effect1_dropShadow_62_524"/>
<feBlend mode="normal" in="SourceGraphic" in2="effect1_dropShadow_62_524" result="shape"/>
</filter>
</defs>
</svg>
